<svg xmlns="http://www.w3.org/2000/svg" viewBox="0 0 64 64" role="img" aria-labelledby="title desc">
  <title id="title">Smart Leads Dashboard</title>
  <desc id="desc">A stylized lead pipeline and growth chart logo.</desc>
  <rect width="64" height="64" rx="14" fill="#0f172a"/>
  <path fill="#14b8a6" d="M15 39.5c0-2.5 2-4.5 4.5-4.5H25c2.5 0 4.5 2 4.5 4.5S27.5 44 25 44h-5.5A4.5 4.5 0 0 1 15 39.5Z"/>
  <path fill="#38bdf8" d="M22 24.5c0-2.5 2-4.5 4.5-4.5H38c2.5 0 4.5 2 4.5 4.5S40.5 29 38 29H26.5a4.5 4.5 0 0 1-4.5-4.5Z"/>
  <path fill="#f59e0b" d="M34.5 39.5c0-2.5 2-4.5 4.5-4.5h5.5c2.5 0 4.5 2 4.5 4.5S47 44 44.5 44H39a4.5 4.5 0 0 1-4.5-4.5Z"/>
  <path fill="none" stroke="#e2e8f0" stroke-linecap="round" stroke-linejoin="round" stroke-width="4" d="m20 42 10-14 8 9 8-15"/>
  <circle cx="20" cy="42" r="3.5" fill="#f8fafc"/>
  <circle cx="30" cy="28" r="3.5" fill="#f8fafc"/>
  <circle cx="38" cy="37" r="3.5" fill="#f8fafc"/>
  <circle cx="46" cy="22" r="3.5" fill="#f8fafc"/>
</svg>
